# xmcd
#
# Track frame offsets:
#	150
#	11246
#	23605
#	44729
#	59207
#	70530
#	87443
#	100234
#	109066
#	127052
#
# Disc length: 1864 seconds
# Revision: 0
# Processed by: cddbd v1.5.2PL0 Copyright (c) Steve Scherf et al.
# Submitted via: dBpowerAMP V12.0
#
DISCID=8d07460a
DTITLE=Dean Dillon - Perfect Day
DYEAR=2007
DGENRE=Country
TTITLE0=She Ain't Right
TTITLE1=I See Red
TTITLE2=I Ain't Her Cowboy
TTITLE3=I Liked You Better
TTITLE4=Colorado
TTITLE5=I Remember Now
TTITLE6=Out Here Livin' Life
TTITLE7=West Texas Town
TTITLE8=It Must Be Mine
TTITLE9=Perfect Day
EXTD=
EXTT0=
EXTT1=
EXTT2=
EXTT3=
EXTT4=
EXTT5=
EXTT6=
EXTT7=
EXTT8=
EXTT9=
PLAYORDER=
